<svg width="554" height="556" viewBox="0 0 554 556" fill="none" xmlns="http://www.w3.org/2000/svg">
<circle cx="277" cy="277" r="277" fill="white" fill-opacity="0.3"/>
<circle cx="277" cy="279" r="274.5" stroke="white" stroke-width="5"/>
<rect x="265.5" y="6.5" width="15" height="109" fill="white" stroke="white"/>
<rect x="266.5" y="442.5" width="15" height="110" fill="white" stroke="white"/>
<rect x="550.5" y="270.5" width="15" height="114" transform="rotate(90 550.5 270.5)" fill="white" stroke="white"/>
<rect x="110.5" y="270.5" width="15" height="108" transform="rotate(90 110.5 270.5)" fill="white" stroke="white"/>
<path d="M274 116V445.5" stroke="white" stroke-width="3"/>
<path d="M111.5 279H444" stroke="white" stroke-width="3"/>
<path d="M110.5 262.5V295.5" stroke="white" stroke-width="3" stroke-linecap="round"/>
<path d="M192 263V296" stroke="white" stroke-width="3" stroke-linecap="round"/>
<path d="M355 263V296" stroke="white" stroke-width="3" stroke-linecap="round"/>
<path d="M257 360H290" stroke="white" stroke-width="3" stroke-linecap="round"/>
<path d="M257 441H290" stroke="white" stroke-width="3" stroke-linecap="round"/>
<path d="M436 263V296" stroke="white" stroke-width="3" stroke-linecap="round"/>
<path d="M127 270.5V287" stroke="white" stroke-width="3" stroke-linecap="round"/>
<path d="M143 270V286.5" stroke="white" stroke-width="3" stroke-linecap="round"/>
<path d="M159 270V286.5" stroke="white" stroke-width="3" stroke-linecap="round"/>
<path d="M176 270V286.5" stroke="white" stroke-width="3" stroke-linecap="round"/>
<path d="M208 270V286.5" stroke="white" stroke-width="3" stroke-linecap="round"/>
<path d="M225 270V286.5" stroke="white" stroke-width="3" stroke-linecap="round"/>
<path d="M241 270V286.5" stroke="white" stroke-width="3" stroke-linecap="round"/>
<path d="M257 270V286.5" stroke="white" stroke-width="3" stroke-linecap="round"/>
<path d="M290 270V286.5" stroke="white" stroke-width="3" stroke-linecap="round"/>
<path d="M266 295H282.5" stroke="white" stroke-width="3" stroke-linecap="round"/>
<path d="M266 311H282.5" stroke="white" stroke-width="3" stroke-linecap="round"/>
<path d="M266 327H282.5" stroke="white" stroke-width="3" stroke-linecap="round"/>
<path d="M266 344H282.5" stroke="white" stroke-width="3" stroke-linecap="round"/>
<path d="M266 376H282.5" stroke="white" stroke-width="3" stroke-linecap="round"/>
<path d="M266 393H282.5" stroke="white" stroke-width="3" stroke-linecap="round"/>
<path d="M266 409H282.5" stroke="white" stroke-width="3" stroke-linecap="round"/>
<path d="M266 425H282.5" stroke="white" stroke-width="3" stroke-linecap="round"/>
<path d="M306 270V286.5" stroke="white" stroke-width="3" stroke-linecap="round"/>
<path d="M322 270V286.5" stroke="white" stroke-width="3" stroke-linecap="round"/>
<path d="M338 270V286.5" stroke="white" stroke-width="3" stroke-linecap="round"/>
<path d="M371 270V286.5" stroke="white" stroke-width="3" stroke-linecap="round"/>
<path d="M387 270V286.5" stroke="white" stroke-width="3" stroke-linecap="round"/>
<path d="M404 270V286.5" stroke="white" stroke-width="3" stroke-linecap="round"/>
<path d="M420 270V286.5" stroke="white" stroke-width="3" stroke-linecap="round"/>
</svg>
